<?xml version="1.0" standalone="no"?>
<!DOCTYPE svg PUBLIC "-//W3C//DTD SVG 20010904//EN"
 "http://www.w3.org/TR/2001/REC-SVG-20010904/DTD/svg10.dtd">
<svg version="1.0" xmlns="http://www.w3.org/2000/svg"
 width="225.000000pt" height="225.000000pt" viewBox="0 0 225.000000 225.000000"
 preserveAspectRatio="xMidYMid meet">
<metadata>
Created by potrace 1.16, written by Peter Selinger 2001-2019
</metadata>
<g transform="translate(0.000000,225.000000) scale(0.100000,-0.100000)"
fill="#000000" stroke="none">
<path d="M598 1509 c-17 -11 -1 -39 22 -39 11 0 20 -2 20 -4 0 -3 -20 -48 -45
-102 -25 -53 -45 -107 -45 -119 0 -31 45 -73 87 -81 19 -4 55 -4 81 -1 35 4
59 0 95 -16 l47 -22 -2 -170 -3 -170 -87 -3 -88 -3 0 149 c0 156 -6 180 -42
161 -16 -9 -18 -24 -18 -159 l0 -150 -29 0 c-31 0 -57 -22 -46 -40 4 -6 108
-10 305 -10 258 0 301 -2 314 -16 20 -20 20 -11 0 28 l-16 31 -91 -5 c-51 -3
-107 -3 -124 -1 l-33 5 0 184 c0 152 2 184 14 184 8 0 21 3 30 6 13 5 16 -9
18 -98 l3 -103 65 -3 c62 -3 64 -3 47 16 -43 47 -7 103 69 106 45 2 49 5 90
62 24 32 44 62 44 67 0 4 -11 7 -24 7 -13 0 -29 6 -35 14 -9 10 -61 228 -61
253 0 2 26 3 59 3 l58 0 47 -102 c26 -56 50 -120 52 -141 5 -52 9 -55 28 -18
20 39 20 49 -3 97 -23 47 -71 155 -71 160 0 1 10 4 23 6 13 2 22 10 22 21 0
18 -20 19 -383 20 -211 1 -389 -1 -394 -4z m212 -48 c0 -39 -54 -238 -67 -248
-28 -22 -98 -16 -128 10 l-27 23 47 104 c26 58 49 108 52 113 6 10 123 9 123
-2z m158 -111 c1 -63 0 -125 -3 -137 -7 -28 -60 -44 -111 -33 -57 13 -60 20
-41 107 9 43 22 102 28 131 l11 53 56 -3 57 -3 3 -115z m156 98 c3 -13 15 -69
27 -125 12 -55 19 -108 16 -117 -9 -24 -82 -39 -122 -26 -18 6 -36 18 -39 26
-3 9 -6 72 -6 140 l0 124 60 0 c54 0 60 -2 64 -22z"/>
<path d="M1096 1025 c-22 -22 -20 -41 5 -58 13 -10 28 -44 44 -99 29 -106 48
-144 77 -152 13 -3 95 -6 183 -6 129 0 165 3 183 15 15 11 31 47 53 118 19 61
39 107 50 116 21 15 25 51 7 69 -7 7 -27 12 -45 12 -28 0 -33 -3 -33 -25 0
-30 -40 -59 -70 -50 -11 3 -32 22 -46 41 l-26 34 -87 0 c-86 0 -87 0 -104 -30
-36 -60 -100 -64 -115 -6 -10 36 -49 47 -76 21z"/>
<path d="M580 322 c0 -15 42 -34 53 -23 7 7 19 5 39 -5 16 -8 33 -12 38 -9 6
3 10 -3 10 -14 0 -25 -4 -26 -22 -7 -8 7 -25 17 -38 21 -31 9 -19 -4 34 -35
22 -13 37 -19 33 -14 -3 6 9 10 31 11 l37 1 -30 -14 c-16 -8 -22 -12 -13 -10
9 3 18 2 20 -2 5 -12 108 -41 108 -31 0 5 -5 9 -12 9 -6 0 -9 2 -6 5 9 9 38
-6 38 -20 0 -29 278 -46 390 -24 75 15 172 48 141 49 l-24 0 27 21 c14 11 32
18 39 16 7 -3 5 -6 -5 -6 -9 -1 -19 -4 -22 -9 -2 -4 13 -6 35 -5 43 2 133 46
105 51 -20 4 -21 22 -1 22 21 0 30 -4 28 -12 -2 -4 8 -2 22 4 14 6 25 15 25
19 0 14 -41 21 -55 9 -11 -9 -15 -9 -15 -1 0 8 -124 11 -450 11 -394 0 -449
-2 -444 -15 5 -13 1 -13 -36 0 -46 16 -80 19 -80 7z"/>
</g>
</svg>
